<?xml version="1.0" encoding="UTF-8" standalone="no"?>
<!DOCTYPE svg PUBLIC "-//W3C//DTD SVG 1.1//EN"
 "http://www.w3.org/Graphics/SVG/1.1/DTD/svg11.dtd">
<!-- Generated by graphviz version 2.42.4 (0)
 -->
<!-- Pages: 1 -->
<svg width="1138pt" height="692pt"
 viewBox="0.00 0.00 1137.75 692.00" xmlns="http://www.w3.org/2000/svg" xmlns:xlink="http://www.w3.org/1999/xlink">
<g id="graph0" class="graph" transform="scale(1 1) rotate(0) translate(36 656)">
<polygon fill="white" stroke="transparent" points="-36,36 -36,-656 1101.75,-656 1101.75,36 -36,36"/>
<!-- Run -->
<g id="node1" class="node">
<title>Run</title>
<polygon fill="none" stroke="black" points="9.75,-599 9.75,-620 191.75,-620 191.75,-599 9.75,-599"/>
<text text-anchor="start" x="83.75" y="-606.8" font-family="Times,serif" font-weight="bold" font-size="14.00">Run</text>
<polygon fill="none" stroke="black" points="9.75,-578 9.75,-599 121.75,-599 121.75,-578 9.75,-578"/>
<text text-anchor="start" x="44.25" y="-584.8" font-family="Times,serif" font-size="14.00">Name</text>
<polygon fill="none" stroke="black" points="121.75,-578 121.75,-599 191.75,-599 191.75,-578 121.75,-578"/>
<text text-anchor="start" x="139.25" y="-584.8" font-family="Times,serif" font-size="14.00">Type</text>
<polygon fill="none" stroke="black" points="9.75,-557 9.75,-578 121.75,-578 121.75,-557 9.75,-557"/>
<text text-anchor="start" x="58.75" y="-563.8" font-family="Times,serif" font-size="14.00">id</text>
<polygon fill="none" stroke="black" points="121.75,-557 121.75,-578 191.75,-578 191.75,-557 121.75,-557"/>
<text text-anchor="start" x="146.75" y="-563.8" font-family="Times,serif" font-size="14.00">int</text>
<polygon fill="none" stroke="black" points="9.75,-536 9.75,-557 121.75,-557 121.75,-536 9.75,-536"/>
<text text-anchor="start" x="12.75" y="-542.8" font-family="Times,serif" font-size="14.00">start_datetime</text>
<polygon fill="none" stroke="black" points="121.75,-536 121.75,-557 191.75,-557 191.75,-536 121.75,-536"/>
<text text-anchor="start" x="124.75" y="-542.8" font-family="Times,serif" font-size="14.00">datetime</text>
<polygon fill="none" stroke="black" points="9.75,-515 9.75,-536 121.75,-536 121.75,-515 9.75,-515"/>
<text text-anchor="start" x="17.25" y="-521.8" font-family="Times,serif" font-size="14.00">end_datetime</text>
<polygon fill="none" stroke="black" points="121.75,-515 121.75,-536 191.75,-536 191.75,-515 121.75,-515"/>
<text text-anchor="start" x="124.75" y="-521.8" font-family="Times,serif" font-size="14.00">datetime</text>
<polygon fill="none" stroke="black" points="9.75,-494 9.75,-515 191.75,-515 191.75,-494 9.75,-494"/>
<text text-anchor="start" x="22.75" y="-501.8" font-family="Times,serif" font-weight="bold" font-style="italic" font-size="14.00">Dynamic Properties</text>
<polygon fill="none" stroke="black" points="9.75,-473 9.75,-494 121.75,-494 121.75,-473 9.75,-473"/>
<text text-anchor="start" x="18.75" y="-479.8" font-family="Times,serif" font-size="14.00">time_elapsed</text>
<polygon fill="none" stroke="black" points="121.75,-473 121.75,-494 191.75,-494 191.75,-473 121.75,-473"/>
<text text-anchor="start" x="146.75" y="-479.8" font-family="Times,serif" font-size="14.00">int</text>
<polygon fill="none" stroke="black" points="9.75,-452 9.75,-473 121.75,-473 121.75,-452 9.75,-452"/>
<text text-anchor="start" x="35.25" y="-458.8" font-family="Times,serif" font-size="14.00">distance</text>
<polygon fill="none" stroke="black" points="121.75,-452 121.75,-473 191.75,-473 191.75,-452 121.75,-452"/>
<text text-anchor="start" x="140.75" y="-458.8" font-family="Times,serif" font-size="14.00">float</text>
<polygon fill="none" stroke="black" points="9.75,-431 9.75,-452 121.75,-452 121.75,-431 9.75,-431"/>
<text text-anchor="start" x="12.75" y="-437.8" font-family="Times,serif" font-size="14.00">local_timezone</text>
<polygon fill="none" stroke="black" points="121.75,-431 121.75,-452 191.75,-452 191.75,-431 121.75,-431"/>
<text text-anchor="start" x="135.25" y="-437.8" font-family="Times,serif" font-size="14.00">string</text>
<polygon fill="none" stroke="black" points="9.75,-410 9.75,-431 121.75,-431 121.75,-410 9.75,-410"/>
<text text-anchor="start" x="47.25" y="-416.8" font-family="Times,serif" font-size="14.00">state</text>
<polygon fill="none" stroke="black" points="121.75,-410 121.75,-431 191.75,-431 191.75,-410 121.75,-410"/>
<text text-anchor="start" x="137.25" y="-416.8" font-family="Times,serif" font-size="14.00">State</text>
<polygon fill="none" stroke="black" points="9.75,-389 9.75,-410 121.75,-410 121.75,-389 9.75,-389"/>
<text text-anchor="start" x="38.25" y="-395.8" font-family="Times,serif" font-size="14.00">country</text>
<polygon fill="none" stroke="black" points="121.75,-389 121.75,-410 191.75,-410 191.75,-389 121.75,-389"/>
<text text-anchor="start" x="127.75" y="-395.8" font-family="Times,serif" font-size="14.00">Country</text>
<polygon fill="none" stroke="black" points="9.75,-368 9.75,-389 191.75,-389 191.75,-368 9.75,-368"/>
<text text-anchor="start" x="49.25" y="-375.8" font-family="Times,serif" font-weight="bold" font-style="italic" font-size="14.00">Foreign Keys</text>
<polygon fill="none" stroke="black" points="9.75,-347 9.75,-368 121.75,-368 121.75,-347 9.75,-347"/>
<text text-anchor="start" x="50.75" y="-353.8" font-family="Times,serif" font-size="14.00">legs</text>
<polygon fill="none" stroke="black" points="121.75,-347 121.75,-368 191.75,-368 191.75,-347 121.75,-347"/>
<text text-anchor="start" x="134.25" y="-353.8" font-family="Times,serif" font-size="14.00">Leg(s)</text>
<polygon fill="none" stroke="black" points="9.75,-326 9.75,-347 121.75,-347 121.75,-326 9.75,-326"/>
<text text-anchor="start" x="52.25" y="-332.8" font-family="Times,serif" font-size="14.00">city</text>
<polygon fill="none" stroke="black" points="121.75,-326 121.75,-347 191.75,-347 191.75,-326 121.75,-326"/>
<text text-anchor="start" x="141.75" y="-332.8" font-family="Times,serif" font-size="14.00">City</text>
</g>
<!-- Leg -->
<g id="node2" class="node">
<title>Leg</title>
<polygon fill="none" stroke="black" points="335.75,-514 335.75,-535 517.75,-535 517.75,-514 335.75,-514"/>
<text text-anchor="start" x="412.25" y="-521.8" font-family="Times,serif" font-weight="bold" font-size="14.00">Leg</text>
<polygon fill="none" stroke="black" points="335.75,-493 335.75,-514 447.75,-514 447.75,-493 335.75,-493"/>
<text text-anchor="start" x="370.25" y="-499.8" font-family="Times,serif" font-size="14.00">Name</text>
<polygon fill="none" stroke="black" points="447.75,-493 447.75,-514 517.75,-514 517.75,-493 447.75,-493"/>
<text text-anchor="start" x="465.25" y="-499.8" font-family="Times,serif" font-size="14.00">Type</text>
<polygon fill="none" stroke="black" points="335.75,-472 335.75,-493 447.75,-493 447.75,-472 335.75,-472"/>
<text text-anchor="start" x="384.75" y="-478.8" font-family="Times,serif" font-size="14.00">id</text>
<polygon fill="none" stroke="black" points="447.75,-472 447.75,-493 517.75,-493 517.75,-472 447.75,-472"/>
<text text-anchor="start" x="472.75" y="-478.8" font-family="Times,serif" font-size="14.00">int</text>
<polygon fill="none" stroke="black" points="335.75,-451 335.75,-472 447.75,-472 447.75,-451 335.75,-451"/>
<text text-anchor="start" x="338.75" y="-457.8" font-family="Times,serif" font-size="14.00">start_datetime</text>
<polygon fill="none" stroke="black" points="447.75,-451 447.75,-472 517.75,-472 517.75,-451 447.75,-451"/>
<text text-anchor="start" x="450.75" y="-457.8" font-family="Times,serif" font-size="14.00">datetime</text>
<polygon fill="none" stroke="black" points="335.75,-430 335.75,-451 447.75,-451 447.75,-430 335.75,-430"/>
<text text-anchor="start" x="343.25" y="-436.8" font-family="Times,serif" font-size="14.00">end_datetime</text>
<polygon fill="none" stroke="black" points="447.75,-430 447.75,-451 517.75,-451 517.75,-430 447.75,-430"/>
<text text-anchor="start" x="450.75" y="-436.8" font-family="Times,serif" font-size="14.00">datetime</text>
<polygon fill="none" stroke="black" points="335.75,-409 335.75,-430 517.75,-430 517.75,-409 335.75,-409"/>
<text text-anchor="start" x="348.75" y="-416.8" font-family="Times,serif" font-weight="bold" font-style="italic" font-size="14.00">Dynamic Properties</text>
<polygon fill="none" stroke="black" points="335.75,-388 335.75,-409 447.75,-409 447.75,-388 335.75,-388"/>
<text text-anchor="start" x="344.75" y="-394.8" font-family="Times,serif" font-size="14.00">time_elapsed</text>
<polygon fill="none" stroke="black" points="447.75,-388 447.75,-409 517.75,-409 517.75,-388 447.75,-388"/>
<text text-anchor="start" x="472.75" y="-394.8" font-family="Times,serif" font-size="14.00">int</text>
<polygon fill="none" stroke="black" points="335.75,-367 335.75,-388 447.75,-388 447.75,-367 335.75,-367"/>
<text text-anchor="start" x="361.25" y="-373.8" font-family="Times,serif" font-size="14.00">distance</text>
<polygon fill="none" stroke="black" points="447.75,-367 447.75,-388 517.75,-388 517.75,-367 447.75,-367"/>
<text text-anchor="start" x="466.75" y="-373.8" font-family="Times,serif" font-size="14.00">float</text>
<polygon fill="none" stroke="black" points="335.75,-346 335.75,-367 517.75,-367 517.75,-346 335.75,-346"/>
<text text-anchor="start" x="375.25" y="-353.8" font-family="Times,serif" font-weight="bold" font-style="italic" font-size="14.00">Foreign Keys</text>
<polygon fill="none" stroke="black" points="335.75,-325 335.75,-346 447.75,-346 447.75,-325 335.75,-325"/>
<text text-anchor="start" x="369.25" y="-331.8" font-family="Times,serif" font-size="14.00">points</text>
<polygon fill="none" stroke="black" points="447.75,-325 447.75,-346 517.75,-346 517.75,-325 447.75,-325"/>
<text text-anchor="start" x="455.25" y="-331.8" font-family="Times,serif" font-size="14.00">Point(s)</text>
</g>
<!-- Run&#45;&gt;Leg -->
<g id="edge2" class="edge">
<title>Run:legs_fk&#45;&gt;Leg:id</title>
<path fill="none" stroke="black" d="M8.75,-357C-5.03,-357 -0.15,-335.59 9.75,-326 67.86,-269.73 117.7,-293.44 191.75,-326 275.21,-362.7 243.67,-474.29 325.74,-482.52"/>
<polygon fill="black" stroke="black" points="325.59,-486.02 335.75,-483 325.93,-479.02 325.59,-486.02"/>
</g>
<!-- City -->
<g id="node3" class="node">
<title>City</title>
<polygon fill="none" stroke="black" points="372.75,-242 372.75,-263 481.75,-263 481.75,-242 372.75,-242"/>
<text text-anchor="start" x="411.25" y="-249.8" font-family="Times,serif" font-weight="bold" font-size="14.00">City</text>
<polygon fill="none" stroke="black" points="372.75,-221 372.75,-242 426.75,-242 426.75,-221 372.75,-221"/>
<text text-anchor="start" x="378.25" y="-227.8" font-family="Times,serif" font-size="14.00">Name</text>
<polygon fill="none" stroke="black" points="426.75,-221 426.75,-242 481.75,-242 481.75,-221 426.75,-221"/>
<text text-anchor="start" x="436.75" y="-227.8" font-family="Times,serif" font-size="14.00">Type</text>
<polygon fill="none" stroke="black" points="372.75,-200 372.75,-221 426.75,-221 426.75,-200 372.75,-200"/>
<text text-anchor="start" x="392.75" y="-206.8" font-family="Times,serif" font-size="14.00">id</text>
<polygon fill="none" stroke="black" points="426.75,-200 426.75,-221 481.75,-221 481.75,-200 426.75,-200"/>
<text text-anchor="start" x="444.25" y="-206.8" font-family="Times,serif" font-size="14.00">int</text>
<polygon fill="none" stroke="black" points="372.75,-179 372.75,-200 426.75,-200 426.75,-179 372.75,-179"/>
<text text-anchor="start" x="379.75" y="-185.8" font-family="Times,serif" font-size="14.00">name</text>
<polygon fill="none" stroke="black" points="426.75,-179 426.75,-200 481.75,-200 481.75,-179 426.75,-179"/>
<text text-anchor="start" x="432.75" y="-185.8" font-family="Times,serif" font-size="14.00">Name</text>
<polygon fill="none" stroke="black" points="372.75,-158 372.75,-179 481.75,-179 481.75,-158 372.75,-158"/>
<text text-anchor="start" x="375.75" y="-165.8" font-family="Times,serif" font-weight="bold" font-style="italic" font-size="14.00">Foreign Keys</text>
<polygon fill="none" stroke="black" points="372.75,-137 372.75,-158 426.75,-158 426.75,-137 372.75,-137"/>
<text text-anchor="start" x="381.25" y="-143.8" font-family="Times,serif" font-size="14.00">state</text>
</g>
<!-- Run&#45;&gt;City -->
<g id="edge3" class="edge">
<title>Run:city_fk&#45;&gt;City:id</title>
<path fill="none" stroke="black" d="M65.75,-325C65.75,-183.27 219.17,-209.64 361.52,-210.95"/>
<polygon fill="black" stroke="black" points="361.73,-214.45 371.75,-211 361.77,-207.45 361.73,-214.45"/>
</g>
<!-- Point -->
<g id="node6" class="node">
<title>Point</title>
<polygon fill="none" stroke="black" points="661.75,-393 661.75,-414 823.75,-414 823.75,-393 661.75,-393"/>
<text text-anchor="start" x="721.25" y="-400.8" font-family="Times,serif" font-weight="bold" font-size="14.00">Point</text>
<polygon fill="none" stroke="black" points="661.75,-372 661.75,-393 748.75,-393 748.75,-372 661.75,-372"/>
<text text-anchor="start" x="683.75" y="-378.8" font-family="Times,serif" font-size="14.00">Name</text>
<polygon fill="none" stroke="black" points="748.75,-372 748.75,-393 823.75,-393 823.75,-372 748.75,-372"/>
<text text-anchor="start" x="768.75" y="-378.8" font-family="Times,serif" font-size="14.00">Type</text>
<polygon fill="none" stroke="black" points="661.75,-351 661.75,-372 748.75,-372 748.75,-351 661.75,-351"/>
<text text-anchor="start" x="698.25" y="-357.8" font-family="Times,serif" font-size="14.00">id</text>
<polygon fill="none" stroke="black" points="748.75,-351 748.75,-372 823.75,-372 823.75,-351 748.75,-351"/>
<text text-anchor="start" x="776.25" y="-357.8" font-family="Times,serif" font-size="14.00">int</text>
<polygon fill="none" stroke="black" points="661.75,-330 661.75,-351 748.75,-351 748.75,-330 661.75,-330"/>
<text text-anchor="start" x="666.75" y="-336.8" font-family="Times,serif" font-size="14.00">timestamp</text>
<polygon fill="none" stroke="black" points="748.75,-330 748.75,-351 823.75,-351 823.75,-330 748.75,-330"/>
<text text-anchor="start" x="754.25" y="-336.8" font-family="Times,serif" font-size="14.00">datetime</text>
<polygon fill="none" stroke="black" points="661.75,-309 661.75,-330 748.75,-330 748.75,-309 661.75,-309"/>
<text text-anchor="start" x="677.25" y="-315.8" font-family="Times,serif" font-size="14.00">latitude</text>
<polygon fill="none" stroke="black" points="748.75,-309 748.75,-330 823.75,-330 823.75,-309 748.75,-309"/>
<text text-anchor="start" x="770.25" y="-315.8" font-family="Times,serif" font-size="14.00">float</text>
<polygon fill="none" stroke="black" points="661.75,-288 661.75,-309 748.75,-309 748.75,-288 661.75,-288"/>
<text text-anchor="start" x="671.25" y="-294.8" font-family="Times,serif" font-size="14.00">longitude</text>
<polygon fill="none" stroke="black" points="748.75,-288 748.75,-309 823.75,-309 823.75,-288 748.75,-288"/>
<text text-anchor="start" x="770.25" y="-294.8" font-family="Times,serif" font-size="14.00">float</text>
<polygon fill="none" stroke="black" points="661.75,-267 661.75,-288 748.75,-288 748.75,-267 661.75,-267"/>
<text text-anchor="start" x="683.75" y="-273.8" font-family="Times,serif" font-size="14.00">speed</text>
<polygon fill="none" stroke="black" points="748.75,-267 748.75,-288 823.75,-288 823.75,-267 748.75,-267"/>
<text text-anchor="start" x="770.25" y="-273.8" font-family="Times,serif" font-size="14.00">float</text>
<polygon fill="none" stroke="black" points="661.75,-246 661.75,-267 748.75,-267 748.75,-246 661.75,-246"/>
<text text-anchor="start" x="674.75" y="-252.8" font-family="Times,serif" font-size="14.00">distance</text>
<polygon fill="none" stroke="black" points="748.75,-246 748.75,-267 823.75,-267 823.75,-246 748.75,-246"/>
<text text-anchor="start" x="770.25" y="-252.8" font-family="Times,serif" font-size="14.00">float</text>
<polygon fill="none" stroke="black" points="661.75,-225 661.75,-246 748.75,-246 748.75,-225 661.75,-225"/>
<text text-anchor="start" x="672.25" y="-231.8" font-family="Times,serif" font-size="14.00">elevation</text>
<polygon fill="none" stroke="black" points="748.75,-225 748.75,-246 823.75,-246 823.75,-225 748.75,-225"/>
<text text-anchor="start" x="770.25" y="-231.8" font-family="Times,serif" font-size="14.00">float</text>
<polygon fill="none" stroke="black" points="661.75,-204 661.75,-225 823.75,-225 823.75,-204 661.75,-204"/>
<text text-anchor="start" x="664.75" y="-211.8" font-family="Times,serif" font-weight="bold" font-style="italic" font-size="14.00">Dynamic Properties</text>
<polygon fill="none" stroke="black" points="661.75,-183 661.75,-204 748.75,-204 748.75,-183 661.75,-183"/>
<text text-anchor="start" x="688.25" y="-189.8" font-family="Times,serif" font-size="14.00">pace</text>
<polygon fill="none" stroke="black" points="748.75,-183 748.75,-204 823.75,-204 823.75,-183 748.75,-183"/>
<text text-anchor="start" x="776.25" y="-189.8" font-family="Times,serif" font-size="14.00">int</text>
</g>
<!-- Leg&#45;&gt;Point -->
<g id="edge1" class="edge">
<title>Leg:point_fk&#45;&gt;Point:id</title>
<path fill="none" stroke="black" d="M391.75,-324C391.75,-276.08 597.48,-349.46 651.79,-360.61"/>
<polygon fill="black" stroke="black" points="651.36,-364.09 661.75,-362 652.33,-357.15 651.36,-364.09"/>
</g>
<!-- State -->
<g id="node4" class="node">
<title>State</title>
<polygon fill="none" stroke="black" points="680.75,-126 680.75,-147 805.75,-147 805.75,-126 680.75,-126"/>
<text text-anchor="start" x="722.25" y="-133.8" font-family="Times,serif" font-weight="bold" font-size="14.00">State</text>
<polygon fill="none" stroke="black" points="680.75,-105 680.75,-126 741.75,-126 741.75,-105 680.75,-105"/>
<text text-anchor="start" x="689.75" y="-111.8" font-family="Times,serif" font-size="14.00">Name</text>
<polygon fill="none" stroke="black" points="741.75,-105 741.75,-126 805.75,-126 805.75,-105 741.75,-105"/>
<text text-anchor="start" x="756.25" y="-111.8" font-family="Times,serif" font-size="14.00">Type</text>
<polygon fill="none" stroke="black" points="680.75,-84 680.75,-105 741.75,-105 741.75,-84 680.75,-84"/>
<text text-anchor="start" x="704.25" y="-90.8" font-family="Times,serif" font-size="14.00">id</text>
<polygon fill="none" stroke="black" points="741.75,-84 741.75,-105 805.75,-105 805.75,-84 741.75,-84"/>
<text text-anchor="start" x="763.75" y="-90.8" font-family="Times,serif" font-size="14.00">int</text>
<polygon fill="none" stroke="black" points="680.75,-63 680.75,-84 741.75,-84 741.75,-63 680.75,-63"/>
<text text-anchor="start" x="691.25" y="-69.8" font-family="Times,serif" font-size="14.00">name</text>
<polygon fill="none" stroke="black" points="741.75,-63 741.75,-84 805.75,-84 805.75,-63 741.75,-63"/>
<text text-anchor="start" x="752.25" y="-69.8" font-family="Times,serif" font-size="14.00">Name</text>
<polygon fill="none" stroke="black" points="680.75,-42 680.75,-63 805.75,-63 805.75,-42 680.75,-42"/>
<text text-anchor="start" x="691.75" y="-49.8" font-family="Times,serif" font-weight="bold" font-style="italic" font-size="14.00">Foreign Keys</text>
<polygon fill="none" stroke="black" points="680.75,-21 680.75,-42 741.75,-42 741.75,-21 680.75,-21"/>
<text text-anchor="start" x="683.75" y="-27.8" font-family="Times,serif" font-size="14.00">country</text>
<polygon fill="none" stroke="black" points="741.75,-21 741.75,-42 805.75,-42 805.75,-21 741.75,-21"/>
<text text-anchor="start" x="744.75" y="-27.8" font-family="Times,serif" font-size="14.00">Country</text>
</g>
<!-- City&#45;&gt;State -->
<g id="edge4" class="edge">
<title>City:state_fk&#45;&gt;State:id</title>
<path fill="none" stroke="black" d="M399.75,-136C399.75,-13.54 545.95,-90.68 669.75,-94.83"/>
<polygon fill="black" stroke="black" points="669.69,-98.33 679.75,-95 669.81,-91.33 669.69,-98.33"/>
</g>
<!-- Country -->
<g id="node5" class="node">
<title>Country</title>
<polygon fill="none" stroke="black" points="967.75,-63 967.75,-84 1065.75,-84 1065.75,-63 967.75,-63"/>
<text text-anchor="start" x="984.75" y="-70.8" font-family="Times,serif" font-weight="bold" font-size="14.00">Country</text>
<polygon fill="none" stroke="black" points="967.75,-42 967.75,-63 1016.75,-63 1016.75,-42 967.75,-42"/>
<text text-anchor="start" x="970.75" y="-48.8" font-family="Times,serif" font-size="14.00">Name</text>
<polygon fill="none" stroke="black" points="1016.75,-42 1016.75,-63 1065.75,-63 1065.75,-42 1016.75,-42"/>
<text text-anchor="start" x="1023.75" y="-48.8" font-family="Times,serif" font-size="14.00">Type</text>
<polygon fill="none" stroke="black" points="967.75,-21 967.75,-42 1016.75,-42 1016.75,-21 967.75,-21"/>
<text text-anchor="start" x="985.25" y="-27.8" font-family="Times,serif" font-size="14.00">id</text>
<polygon fill="none" stroke="black" points="1016.75,-21 1016.75,-42 1065.75,-42 1065.75,-21 1016.75,-21"/>
<text text-anchor="start" x="1031.25" y="-27.8" font-family="Times,serif" font-size="14.00">int</text>
<polygon fill="none" stroke="black" points="967.75,0 967.75,-21 1016.75,-21 1016.75,0 967.75,0"/>
<text text-anchor="start" x="972.25" y="-6.8" font-family="Times,serif" font-size="14.00">name</text>
<polygon fill="none" stroke="black" points="1016.75,0 1016.75,-21 1065.75,-21 1065.75,0 1016.75,0"/>
<text text-anchor="start" x="1019.75" y="-6.8" font-family="Times,serif" font-size="14.00">Name</text>
</g>
<!-- State&#45;&gt;Country -->
<g id="edge5" class="edge">
<title>State:country_fk&#45;&gt;Country:id</title>
<path fill="none" stroke="black" d="M710.75,-20C710.75,22 763.28,-19.49 805.25,-21 874.03,-23.48 893.52,-30.29 957.53,-30.95"/>
<polygon fill="black" stroke="black" points="957.73,-34.45 967.75,-31 957.77,-27.45 957.73,-34.45"/>
</g>
</g>
</svg>
